# xmcd
#
# Track frame offsets:
#	150
#	15727
#	35609
#	47961
#	68373
#	77306
#	103864
#	121072
#	134293
#	145020
#	165065
#	180903
#	192683
#	205154
#	224051
#	245084
#
# Disc length: 3593 seconds
#
# Revision: 1
# Processed by: cddbd v1.5.1PL0 Copyright (c) Steve Scherf et al.
# Submitted via: audiograbber 1.83.01
#
DISCID=da0e0710
DTITLE=Various Artist - Australian Storytellers
DYEAR=2003
DGENRE=Australian Country
TTITLE0=Mallee Girl - Sara Storer
TTITLE1=Sicilian Born - Adam Brand
TTITLE2=Charleville - Michael Carr
TTITLE3=Auctioneer - Dianna Corcoran
TTITLE4=The Shearers Dream - Drew McAlister
TTITLE5=Took the Children Away - Melinda Schneider
TTITLE6=Last of the Riverboats - Carter and Carter
TTITLE7=Old Kentucky Rig - Travis Sinclair
TTITLE8=Redback on the Toilet Seat - Michael Carr
TTITLE9=Now I'm Easy - Brendon Walmsley
TTITLE10=Menindee - Adam Brand
TTITLE11=Many Mothers - Dianna Corcoran
TTITLE12=Whoa Bullocks Whoa - Peter Denahy
TTITLE13=Let the Canefields Burn - Brendon Walmsley
TTITLE14=It's a Sunburnt Country - Darren Coggan
TTITLE15=Cootamundra Wattle - Melinda Schneider
EXTD=A new generation of Australian country arrtists pays tribute to the tradit
EXTD=ion of storytelling in song.
EXTT0=
EXTT1=
EXTT2=
EXTT3=
EXTT4=
EXTT5=
EXTT6=
EXTT7=
EXTT8=
EXTT9=
EXTT10=
EXTT11=
EXTT12=
EXTT13=
EXTT14=
EXTT15=
PLAYORDER=
